<?xml version="1.0" encoding="UTF-8" standalone="no"?>
<svg
   xmlns:dc="http://purl.org/dc/elements/1.1/"
   xmlns:cc="http://creativecommons.org/ns#"
   xmlns:rdf="http://www.w3.org/1999/02/22-rdf-syntax-ns#"
   xmlns:svg="http://www.w3.org/2000/svg"
   xmlns="http://www.w3.org/2000/svg"
   xmlns:sodipodi="http://sodipodi.sourceforge.net/DTD/sodipodi-0.dtd"
   xmlns:inkscape="http://www.inkscape.org/namespaces/inkscape"
   version="1.1"
   width="841.88977"
   height="595.27557"
   id="svg2"
   inkscape:version="0.91 r13725"
   viewBox="0 0 841.88977 595.27557"
   sodipodi:docname="MBusLogo240.svg">
  <metadata
     id="metadata24">
    <rdf:RDF>
      <cc:Work
         rdf:about="">
        <dc:format>image/svg+xml</dc:format>
        <dc:type
           rdf:resource="http://purl.org/dc/dcmitype/StillImage" />
        <dc:title></dc:title>
      </cc:Work>
    </rdf:RDF>
  </metadata>
  <defs
     id="defs22" />
  <sodipodi:namedview
     pagecolor="#ffffff"
     bordercolor="#666666"
     borderopacity="1"
     objecttolerance="10"
     gridtolerance="10"
     guidetolerance="10"
     inkscape:pageopacity="0"
     inkscape:pageshadow="2"
     inkscape:window-width="640"
     inkscape:window-height="480"
     id="namedview20"
     showgrid="false"
     inkscape:zoom="0.39645504"
     inkscape:cx="420.94489"
     inkscape:cy="297.63779"
     inkscape:window-x="266"
     inkscape:window-y="273"
     inkscape:window-maximized="0"
     inkscape:current-layer="svg2" />
  <g
     id="g4">
    <g
       id="g6">
      <path
         d="m 376.2189,362.3849 68.929,0 -0.0646,25.5172 -83.7225,0 c -3.1655,0 -6.0725,-1.0336 -8.4627,-2.907 -2.3902,-2.0026 -3.9407,-4.7804 -4.4575,-8.2043 L 324.7968,211.4776 274.602,377.889 c -1.6796,6.7185 -5.8786,10.0131 -12.4033,10.0131 -2.7778,0 -5.4911,-0.969 -7.9459,-2.7132 -2.4548,-1.8734 -4.1344,-4.3282 -4.9743,-7.2999 L 199.6006,211.4776 175.3753,376.92 c -0.1938,1.5504 -1.6796,5.8787 -4.2636,8.0105 -2.6486,2.261 -6.3955,2.907 -9.8839,2.907 l -43.1533,0 0.0646,-25.5818 c 9.3025,0 18.2174,0 27.4553,0 3.1654,0 6.2017,-2.1965 6.7185,-5.3619 l 27.7783,-159.4992 c 0,0 2.9716,-10.2069 6.5893,-13.3077 3.6176,-3.1008 7.752,-4.7159 12.4033,-4.7159 4.4574,0 8.5273,1.2275 11.8865,3.6177 3.4239,2.3902 5.7495,5.8787 6.7831,10.3361 l 43.9285,149.3568 0.5168,0 43.8639,-150.3904 c 1.0982,-4.0699 3.2946,-7.2353 6.7184,-9.4317 3.3593,-2.261 7.2353,-3.4885 11.4344,-3.4885 4.9742,0 9.3671,1.4859 12.9201,4.4575 3.6822,2.907 5.8141,7.1707 6.6539,12.4033 l 26.9385,160.662 c 0.4522,3.1008 2.4548,5.4911 5.491,5.4911 z"
         style="fill:#0e2f86;fill-rule:evenodd"
         id="path8"
         inkscape:connector-curvature="0" />
      <path
         d="m 360.9689,387.7818 399.3619,0 0,-25.4526 -399.3619,0 0,25.4526 z"
         style="fill:#0e2f86;fill-rule:evenodd"
         id="path10"
         inkscape:connector-curvature="0" />
      <path
         d="m 760.1547,375.0642 0,-12.7647 c 7.0308,0 12.765,5.7342 12.765,12.7647 0,7.0307 -5.7342,12.7649 -12.765,12.7649 l 0,-12.7649 z"
         style="fill:#0e2f86;fill-rule:evenodd"
         id="path12"
         inkscape:connector-curvature="0" />
      <path
         d="m 118.419,375.0049 0,12.7647 c -7.0307,0 -12.765,-5.7342 -12.765,-12.7647 0,-7.0308 5.7343,-12.765 12.765,-12.765 l 0,12.765 z"
         style="fill:#0e2f86;fill-rule:evenodd"
         id="path14"
         inkscape:connector-curvature="0" />
    </g>
    <path
       d="m 485.8509,341.64 -39.39,0 c -5.6698,0 -9.72,-1.26 -12.1498,-3.81 -2.4302,-2.5501 -3.6601,-6.63 -3.6601,-12.18 l 0,-96.87 c 0,-5.6701 1.2299,-9.75 3.7199,-12.24 2.49,-2.49 6.5401,-3.75 12.09,-3.75 l 41.76,0 c 6.1501,0 11.46,0.3901 15.99,1.1399 4.5,0.75 8.5501,2.2201 12.1201,4.3801 3.06,1.83 5.7299,4.14 8.1,6.9301 2.34,2.7598 4.1099,5.8499 5.3399,9.2098 1.23,3.3902 1.8601,6.9301 1.8601,10.6801 0,12.8999 -6.45,22.35 -19.3501,28.32 16.95,5.37 25.41,15.8701 25.41,31.47 0,7.2 -1.8598,13.68 -5.55,19.44 -3.6898,5.79 -8.67,10.05 -14.94,12.81 -3.9299,1.62 -8.4299,2.7899 -13.53,3.4501 -5.0998,0.6899 -11.0398,1.0199 -17.82,1.0199 z m -1.95,-57.21 -27.1499,0 0,37.62 28.0199,0 c 17.64,0 26.46,-6.36 26.46,-19.08 0,-6.51 -2.2799,-11.22 -6.84,-14.1601 -4.5899,-2.9098 -11.3998,-4.3799 -20.49,-4.3799 z m -27.1499,-52.05 0,33.33 23.9099,0 c 6.48,0 11.52,-0.6301 15.06,-1.86 3.5401,-1.23 6.2401,-3.57 8.13,-7.02 1.47,-2.46 2.19,-5.22 2.19,-8.28 0,-6.5101 -2.3099,-10.8301 -6.9298,-12.96 -4.6202,-2.13 -11.7,-3.21 -21.1802,-3.21 l -21.1799,0 z m 164.16,97.92 0,-3.09 c -2.88,3.63 -5.8799,6.69 -9.0601,9.1499 -3.1499,2.4602 -6.5999,4.29 -10.3499,5.4901 -3.7499,1.2 -8.0399,1.8 -12.8401,1.8 -5.79,0 -10.98,-1.1999 -15.5999,-3.6 -4.5901,-2.4 -8.1601,-5.7001 -10.6801,-9.93 -2.9698,-5.1001 -4.4699,-12.42 -4.4699,-21.96 l 0,-47.55 c 0,-4.83 1.08,-8.4 3.24,-10.77 2.19,-2.37 5.04,-3.57 8.64,-3.57 3.63,0 6.5401,1.2 8.7899,3.6 2.2201,2.3999 3.3302,5.9701 3.3302,10.74 l 0,38.4 c 0,5.55 0.4799,10.23 1.4099,14.01 0.9301,3.78 2.6099,6.7499 5.04,8.8801 2.4299,2.1299 5.73,3.2099 9.9,3.2099 4.0201,0 7.8299,-1.2001 11.4001,-3.6 3.57,-2.4 6.1798,-5.5499 7.8299,-9.42 1.3501,-3.39 2.01,-10.8301 2.01,-22.32 l 0,-29.16 c 0,-4.7699 1.1101,-8.3401 3.3299,-10.74 2.2501,-2.4 5.1301,-3.6 8.7001,-3.6 3.6,0 6.4499,1.2 8.64,3.57 2.16,2.37 3.24,5.94 3.24,10.77 l 0,69.51 c 0,4.5601 -1.05,7.9801 -3.1201,10.29 -2.0699,2.28 -4.7699,3.42 -8.0399,3.42 -3.3001,0 -6.0001,-1.1999 -8.1301,-3.5699 -2.1299,-2.3701 -3.2099,-5.7002 -3.2099,-9.9601 z m 123.66,-17.85 c 0,6.6299 -1.62,12.3 -4.83,17.0101 -3.24,4.7098 -7.9801,8.28 -14.2801,10.7099 -6.3,2.4301 -13.9799,3.66 -22.9799,3.66 -8.6099,0 -16.02,-1.32 -22.17,-3.96 -6.1501,-2.6401 -10.6801,-5.94 -13.6199,-9.9 -2.9101,-3.9299 -4.3801,-7.92 -4.3801,-11.91 0,-2.6101 0.93,-4.89 2.8199,-6.7501 1.8601,-1.8899 4.2301,-2.8199 7.1101,-2.8199 2.52,0 4.4399,0.6301 5.7901,1.86 1.3498,1.23 2.6399,2.9399 3.8698,5.16 2.4602,4.2899 5.4,7.4701 8.82,9.6 3.4501,2.1 8.1301,3.1499 14.04,3.1499 4.8002,0 8.7602,-1.08 11.8202,-3.2099 3.0898,-2.13 4.6199,-4.5899 4.6199,-7.32 0,-4.2301 -1.5899,-7.3201 -4.7999,-9.24 -3.1802,-1.92 -8.46,-3.78 -15.7802,-5.55 -8.2499,-2.0401 -14.97,-4.2001 -20.16,-6.45 -5.1899,-2.2501 -9.3299,-5.22 -12.45,-8.9101 -3.0898,-3.6899 -4.65,-8.2499 -4.65,-13.6199 0,-4.7999 1.44,-9.36 4.32,-13.6199 2.85,-4.2902 7.0801,-7.7102 12.6902,-10.26 5.58,-2.5501 12.3599,-3.8101 20.2498,-3.8101 6.2102,0 11.7902,0.6299 16.74,1.92 4.9502,1.29 9.0902,3.0299 12.39,5.1899 3.3301,2.1901 5.8501,4.5901 7.56,7.2301 1.7402,2.6399 2.6101,5.22 2.6101,7.74 0,2.73 -0.93,5.0099 -2.7601,6.7501 -1.8598,1.7699 -4.4699,2.6399 -7.8899,2.6399 -2.4599,0 -4.5301,-0.69 -6.27,-2.0999 -1.7399,-1.4102 -3.7199,-3.5101 -5.94,-6.3301 -1.8,-2.34 -3.96,-4.2301 -6.4199,-5.64 -2.4602,-1.41 -5.79,-2.1 -10.0202,-2.1 -4.32,0 -7.95,0.9301 -10.8,2.7599 -2.88,1.8601 -4.32,4.14 -4.32,6.9001 0,2.52 1.05,4.5901 3.1802,6.2101 2.0999,1.5899 4.9499,2.9398 8.5198,3.9898 3.57,1.0502 8.4901,2.34 14.76,3.8701 7.4401,1.8 13.5301,3.99 18.2401,6.51 4.7101,2.49 8.28,5.4899 10.7099,8.9099 2.4301,3.42 3.6601,7.3202 3.6601,11.7301 z"
       style="fill:#0e2f86;fill-rule:evenodd"
       id="path16"
       inkscape:connector-curvature="0" />
    <path
       d="m 402.4766,286.4007 -24.6665,0 c -3.7602,0 -6.6132,-0.8802 -8.5601,-2.6136 -1.9465,-1.7597 -2.9333,-3.9999 -2.9333,-6.7731 0,-2.8 0.9601,-5.0666 2.8534,-6.8266 1.8932,-1.7334 4.7732,-2.6136 8.64,-2.6136 l 24.6665,0 c 3.8667,0 6.7467,0.8802 8.64,2.6136 1.8935,1.76 2.8534,4.0266 2.8534,6.8266 0,2.7732 -0.9332,5.0134 -2.8001,6.7731 -1.8933,1.7334 -4.7733,2.6136 -8.6933,2.6136 z"
       style="fill:#0e2f86;fill-rule:evenodd"
       id="path18"
       inkscape:connector-curvature="0" />
  </g>
</svg>
